<?xml version="1.0" encoding="UTF-8" standalone="no"?>
<!-- Created with Inkscape (http://www.inkscape.org/) -->

<svg
   xmlns:dc="http://purl.org/dc/elements/1.1/"
   xmlns:cc="http://creativecommons.org/ns#"
   xmlns:rdf="http://www.w3.org/1999/02/22-rdf-syntax-ns#"
   xmlns:svg="http://www.w3.org/2000/svg"
   xmlns="http://www.w3.org/2000/svg"
   xmlns:sodipodi="http://sodipodi.sourceforge.net/DTD/sodipodi-0.dtd"
   xmlns:inkscape="http://www.inkscape.org/namespaces/inkscape"
   width="80.53125"
   height="80.5"
   id="svg2"
   version="1.1"
   inkscape:version="0.48.4 r9939"
   sodipodi:docname="cutout.svg">
  <defs
     id="defs4" />
  <sodipodi:namedview
     id="base"
     pagecolor="#ffffff"
     bordercolor="#666666"
     borderopacity="1.0"
     inkscape:pageopacity="0.0"
     inkscape:pageshadow="2"
     inkscape:zoom="3.959798"
     inkscape:cx="18.36814"
     inkscape:cy="21.568057"
     inkscape:document-units="px"
     inkscape:current-layer="layer3"
     showgrid="false"
     showguides="false"
     inkscape:guide-bbox="true"
     inkscape:snap-global="false"
     inkscape:window-width="1878"
     inkscape:window-height="1144"
     inkscape:window-x="42"
     inkscape:window-y="27"
     inkscape:window-maximized="1"
     fit-margin-top="2"
     fit-margin-left="2"
     fit-margin-right="2"
     fit-margin-bottom="2"
     showborder="false">
    <sodipodi:guide
       orientation="0,1"
       position="44.69432,58.039817"
       id="guide3085" />
    <sodipodi:guide
       orientation="0,1"
       position="30.20494,20.095967"
       id="guide3087" />
    <sodipodi:guide
       orientation="1,0"
       position="60.17806,45.917987"
       id="guide3089" />
    <sodipodi:guide
       orientation="1,0"
       position="22.21842,25.904337"
       id="guide3091" />
    <inkscape:grid
       type="xygrid"
       id="grid3093"
       empspacing="5"
       visible="true"
       enabled="true"
       snapvisiblegridlinesonly="true"
       originx="-249.8125px"
       originy="-675.33093px" />
  </sodipodi:namedview>
  <metadata
     id="metadata7">
    <rdf:RDF>
      <cc:Work
         rdf:about="">
        <dc:format>image/svg+xml</dc:format>
        <dc:type
           rdf:resource="http://purl.org/dc/dcmitype/StillImage" />
        <dc:title></dc:title>
      </cc:Work>
    </rdf:RDF>
  </metadata>
  <g
     inkscape:groupmode="layer"
     id="layer7"
     inkscape:label="background"
     style="display:none"
     transform="translate(-249.8125,-296.53125)">
    <rect
       style="fill:#ec6554;fill-opacity:1"
       id="rect3100"
       width="232.08255"
       height="138.3909"
       x="203.52292"
       y="270.53589" />
  </g>
  <g
     inkscape:groupmode="layer"
     id="layer3"
     inkscape:label="round"
     style="display:inline"
     transform="translate(-249.8125,-296.53125)">
    <path
       style="fill:#000000;fill-opacity:1"
       d="m 290.09375,298.53125 c -21.13015,0 -38.28125,17.11985 -38.28125,38.25 0,21.13015 17.1511,38.25 38.28125,38.25 21.13015,0 38.25,-17.11985 38.25,-38.25 0,-21.13015 -17.11985,-38.25 -38.25,-38.25 z M 303.875,317.9375 c 2.06469,0.0772 3.60723,0.77492 4.59375,2.125 0.98644,1.33087 0.54572,3.12573 -1.3125,5.34375 l -20,21.53125 16.75,0 c 3.34941,10e-6 5.03121,1.47456 5.03125,4.40625 0.0229,2.81597 -1.65059,4.21875 -5,4.21875 l -27.65625,0 c -2.27121,0.0386 -3.85529,-0.75949 -4.75,-2.4375 -0.87178,-1.69729 -0.41444,-3.40841 1.375,-5.125 l 20.0625,-21.34375 -16.3125,0 c -3.69358,0.0193 -5.53125,-1.3715 -5.53125,-4.1875 0,-2.97023 1.82105,-4.43746 5.46875,-4.4375 l 27.28125,-0.0937 z"
       id="path3024"
       inkscape:connector-curvature="0" />
  </g>
</svg>
